<?xml version="1.0" encoding="utf-8"?>
<!-- Generator: Adobe Illustrator 21.0.0, SVG Export Plug-In . SVG Version: 6.00 Build 0)  -->
<svg version="1.1" id="Calque_1" xmlns="http://www.w3.org/2000/svg" xmlns:xlink="http://www.w3.org/1999/xlink" x="0px" y="0px"
	 viewBox="0 0 283.5 283.5" style="enable-background:new 0 0 283.5 283.5;" xml:space="preserve">
<style type="text/css">
	.st0{fill:#3865A6;}
</style>
<g id="SvgjsG1773" transform="matrix(0.6563525550867323,0,0,0.6563525550867323,-6.255039048764943,-1.2086267985483872)">
	<path class="st0" d="M58.5,193.9l71.6,71.6l71.6-71.6L130,122.4L58.5,193.9 M130,98.5l95.4,95.4L130,289.3l-95.4-95.4L130,98.5"/>
	<path class="st0" d="M130,217.8l23.9-23.9L130,170.1l-23.9,23.9L130,217.8 M82.3,193.9l47.7-47.7l47.7,47.7L130,241.6L82.3,193.9"
		/>
	<path class="st0" d="M344.7,313.2l-95.4-95.4l-95.4,95.4l95.4,95.4L344.7,313.2 M368.6,313.2L249.3,432.5L130,313.2l119.3-119.3
		L368.6,313.2"/>
	<path class="st0" d="M297,313.2l-47.7-47.7l-47.7,47.7l47.7,47.7L297,313.2 M320.9,313.2l-71.6,71.6l-71.6-71.6l71.6-71.6
		L320.9,313.2"/>
	<polyline class="st0" points="273.2,313.2 249.3,337.1 225.5,313.2 249.3,289.3 273.2,313.2 	"/>
	<path class="st0" d="M201.6,74.6l47.7,47.7L297,74.6l-47.7-47.7L201.6,74.6 M177.8,74.6l71.6-71.6l71.6,71.6l-71.6,71.6L177.8,74.6
		"/>
	<polyline class="st0" points="225.5,74.6 249.3,50.8 273.2,74.6 249.3,98.5 225.5,74.6 	"/>
	<path class="st0" d="M368.6,170.1l-23.9,23.9l23.9,23.9l23.9-23.9L368.6,170.1 M416.3,193.9l-47.7,47.7l-47.7-47.7l47.7-47.7
		L416.3,193.9"/>
</g>
</svg>
