<?xml version="1.0" encoding="utf-8"?>
<!-- Generator: Adobe Illustrator 21.0.0, SVG Export Plug-In . SVG Version: 6.00 Build 0)  -->
<svg version="1.1" id="Calque_1" xmlns="http://www.w3.org/2000/svg" xmlns:xlink="http://www.w3.org/1999/xlink" x="0px" y="0px"
	 viewBox="0 0 369.7 69.2" style="enable-background:new 0 0 369.7 69.2;" xml:space="preserve">
<style type="text/css">
	.st0{fill:#FFFFFF;}
</style>
<g id="SvgjsG1773" transform="matrix(0.6563525550867323,0,0,0.6563525550867323,-6.255039048764943,-1.2086267985483872)">
	<path class="st0" d="M14,50l13.5,13.5L41,50L27.5,36.5L14,50 M27.5,32l18,18l-18,18l-18-18L27.5,32"/>
	<path class="st0" d="M27.5,54.5L32,50l-4.5-4.5L23,50L27.5,54.5 M18.5,50l9-9l9,9l-9,9L18.5,50"/>
	<path class="st0" d="M68,72.5l-18-18l-18,18l18,18L68,72.5 M72.5,72.5L50,95L27.5,72.5L50,50L72.5,72.5"/>
	<path class="st0" d="M59,72.5l-9-9l-9,9l9,9L59,72.5 M63.5,72.5L50,86L36.5,72.5L50,59L63.5,72.5"/>
	<polyline class="st0" points="54.5,72.5 50,77 45.5,72.5 50,68 54.5,72.5 	"/>
	<path class="st0" d="M41,27.5l9,9l9-9l-9-9L41,27.5 M36.5,27.5L50,14l13.5,13.5L50,41L36.5,27.5"/>
	<polyline class="st0" points="45.5,27.5 50,23 54.5,27.5 50,32 45.5,27.5 	"/>
	<path class="st0" d="M72.5,45.5L68,50l4.5,4.5L77,50L72.5,45.5 M81.5,50l-9,9l-9-9l9-9L81.5,50"/>
</g>
<g id="SvgjsG1774" transform="matrix(2.4650297506192302,0,0,2.4650297506192302,65.0279757293375,-29.383161867954758)">
	<path class="st0" d="M9.7,17.2h9.6v-3.8h-17v1.2h15.6v1.4H0.8V12h19.9v6.7h-9.6v18.7H9.7V17.2z M7,18.6H0.8v-1.4h7.6v21.3h4V19.9
		h1.4V40H7C7,40,7,18.6,7,18.6z M43.1,40c-2.4,0-4.8-0.6-7-1.9C31.8,35.6,29,30.9,29,26c0-2.5,0.6-4.8,1.9-7c2.5-4.3,7.2-7,12.2-7
		c2.4,0,4.8,0.6,7,1.9c4.4,2.6,7,7.3,7,12.2c0,2.4-0.6,4.7-1.9,6.9C52.7,37.3,48.1,40,43.1,40z M43.1,13.3c-2.3,0-4.4,0.6-6.3,1.7
		c-3.9,2.2-6.3,6.4-6.3,11c0,2.3,0.6,4.4,1.7,6.3c2.2,3.9,6.3,6.3,10.9,6.3c2.3,0,4.4-0.6,6.4-1.7c3.9-2.2,6.3-6.3,6.3-10.9
		c0-2.3-0.6-4.4-1.7-6.4C51.8,15.7,47.6,13.3,43.1,13.3z M43.1,37.3c-2,0-3.9-0.5-5.7-1.5c-3.6-2-5.8-5.8-5.8-9.8
		c0-2,0.5-3.9,1.5-5.7c2-3.5,5.6-5.6,9.9-5.6c2.2,0,4.1,0.5,5.8,1.4c3.4,1.9,5.4,5.5,5.4,9.8c0,2-0.5,3.9-1.4,5.6
		C51,35.1,47.2,37.3,43.1,37.3z M43.1,16.1c-1.8,0-3.4,0.4-5,1.3c-3.1,1.8-5,4.9-5,8.6c0,1.8,0.4,3.4,1.4,4.9c1.8,3.1,4.9,5,8.6,5
		c1.8,0,3.4-0.4,5-1.4c3-1.8,4.9-5,4.9-8.6c0-1.8-0.4-3.5-1.3-5C49.9,17.9,46.6,16.1,43.1,16.1L43.1,16.1z M43.1,34.7
		c-1.6,0-3-0.4-4.4-1.2C36.1,32,34.4,29,34.4,26c0-1.6,0.4-3,1.2-4.4c1.6-2.7,4.3-4.3,7.6-4.3c1.6,0,3,0.4,4.3,1.2
		c2.7,1.6,4.2,4.3,4.2,7.5c0,1.6-0.4,3-1.1,4.4C49.1,33,46.3,34.7,43.1,34.7z M43.1,18.7c-1.3,0-2.5,0.3-3.6,1
		c-2.2,1.3-3.7,3.7-3.7,6.3c0,1.3,0.3,2.5,1,3.6c1.3,2.2,3.6,3.6,6.3,3.6c1.3,0,2.6-0.3,3.6-1c2.2-1.3,3.5-3.6,3.5-6.2
		c0-1.3-0.3-2.5-1-3.6C48,20.1,45.7,18.7,43.1,18.7z M83.8,16c-2.4-2.5-5.5-4-8.5-4H63.6v1.4l11.7,0c1.9,0,3.7,0.6,5.4,1.8
		c3.4,2.4,5.6,6.6,5.6,10.7c0,2.2-0.5,4.2-1.5,6c-2,3.7-6,6.4-9.5,6.4H65.1V16l10,0c1.4,0,2.8,0.4,4.2,1.4c2.7,1.8,4.4,5.2,4.4,8.6
		c0,2.4-1,5-2.9,6.9c-1.8,1.8-3.9,2.9-5.6,2.9h-4.6l0-15.8h-1.4l0,16.5v0.7h6c2.2,0,4.8-1.2,6.7-3.3c2.1-2.3,3.3-5.1,3.3-7.9
		c0-2.9-1.1-5.8-3.2-8c-2.2-2.2-4.6-3.4-6.9-3.4H63.6V40h11.7c2.9,0,6-1.5,8.4-4c2.6-2.7,4-6.2,4-10S86.4,18.8,83.8,16z M74.9,34.5
		c1.1,0,2.3-0.4,3.5-1.3c2.4-1.7,4-4.6,4-7.3c0-1.4-0.4-2.8-1-4.2c-1.4-2.7-3.9-4.4-6.5-4.4l-8.6,0l0,19.9h1.4V18.8l7.1,0
		c0.9,0,1.9,0.4,2.9,1c2,1.4,3.2,3.7,3.2,6.1c0,1.6-0.8,3.5-2,4.9c-1.2,1.4-2.8,2.2-4.1,2.2h-2.8v1.4H74.9L74.9,34.5z M109.6,40
		c-2.4,0-4.8-0.6-7-1.9c-4.4-2.5-7.1-7.2-7.1-12.1c0-2.5,0.6-4.8,1.9-7c2.5-4.3,7.2-7,12.2-7c2.4,0,4.8,0.6,7,1.9
		c4.4,2.6,7,7.3,7,12.2c0,2.4-0.6,4.7-1.9,6.9C119.2,37.3,114.5,40,109.6,40z M109.6,13.3c-2.3,0-4.4,0.6-6.3,1.7
		c-3.9,2.2-6.3,6.4-6.3,11c0,2.3,0.6,4.4,1.7,6.3c2.2,3.9,6.3,6.3,10.9,6.3c2.3,0,4.4-0.6,6.4-1.7c3.9-2.2,6.3-6.3,6.3-10.9
		c0-2.3-0.6-4.4-1.7-6.4C118.3,15.7,114.1,13.3,109.6,13.3z M109.6,37.3c-2,0-3.9-0.5-5.7-1.5c-3.6-2-5.8-5.8-5.8-9.8
		c0-2,0.5-3.9,1.5-5.7c2-3.5,5.6-5.6,9.9-5.6c2.2,0,4.1,0.5,5.8,1.4c3.4,1.9,5.4,5.5,5.4,9.8c0,2-0.5,3.9-1.4,5.6
		C117.5,35.1,113.6,37.3,109.6,37.3z M109.6,16.1c-1.8,0-3.4,0.4-5,1.3c-3.1,1.8-5,4.9-5,8.6c0,1.8,0.4,3.4,1.4,4.9
		c1.8,3.1,4.9,5,8.6,5c1.8,0,3.4-0.4,5-1.4c3-1.8,4.9-5,4.9-8.6c0-1.8-0.4-3.5-1.3-5C116.4,17.9,113.1,16.1,109.6,16.1L109.6,16.1z
		 M109.6,34.7c-1.6,0-3-0.4-4.4-1.2c-2.7-1.6-4.4-4.5-4.4-7.6c0-1.6,0.4-3,1.2-4.4c1.6-2.7,4.3-4.3,7.6-4.3c1.6,0,3,0.4,4.3,1.2
		c2.7,1.6,4.2,4.3,4.2,7.5c0,1.6-0.4,3-1.1,4.4C115.6,33,112.7,34.7,109.6,34.7L109.6,34.7z M109.6,18.7c-1.3,0-2.5,0.3-3.6,1
		c-2.2,1.3-3.7,3.7-3.7,6.3c0,1.3,0.3,2.5,1,3.6c1.3,2.2,3.6,3.6,6.3,3.6c1.3,0,2.6-0.3,3.6-1c2.2-1.3,3.5-3.6,3.5-6.2
		c0-1.3-0.3-2.5-1-3.6C114.5,20.1,112.1,18.7,109.6,18.7z"/>
</g>
</svg>
